<svg xmlns="http://www.w3.org/2000/svg" version="1.1" xmlns:xlink="http://www.w3.org/1999/xlink" width="512" height="512" x="0" y="0" viewBox="0 0 66 66" style="enable-background:new 0 0 512 512" xml:space="preserve" class=""><g><path d="M36.9 1.6c-1.5-1-3.6-.8-4.7.7-1.2 1.6-.9 3.7.6 4.8 2.9 2.2 6.1 5.9 6.3 9.5.1 2.1-1.5 2.9-4.6 4.3-3.1 1.3-6.9 3-9.3 7.3-2.9 5.1-2.2 10.8 2 16.4.6.9 1.7 1.4 2.7 1.4 1.1 0 2.1-.5 2.8-1.4.8-1.2.8-2.8-.1-4-2.2-2.9-3.2-6.1-1.4-9.2 2.8 8 3.7 10.6 4 11.5L27 59.4c-.9 1.9-.2 4.2 1.8 5.2 1.9.9 4.2.2 5.2-1.8l6.5-13.2 1.2 11.8c.2 2 1.8 3.5 3.9 3.5 2.3 0 4.1-1.9 3.9-4.2-.7-6.6-1.1-10.9-1.3-14-.9-10-.6-6.8-5.5-21.4 6.7-7.7 2.3-17.4-5.8-23.7zm3.6 23.9c5 15.1 4.7 11.6 5.6 21.5.3 3.1.6 7.5 1.3 14 .1 1-.7 1.9-1.7 2s-1.9-.7-2-1.7L42.1 46c-.1-1-1.4-1.2-1.9-.3L32.1 62c-.4.9-1.6 1.3-2.5.9-.9-.5-1.3-1.6-.9-2.5l8.4-17c.1-.2.1-.5 0-.8s-3.1-9.1-4.7-13.7c-.2-.7-1.2-.9-1.7-.3-3.7 4.1-3.1 8.7.2 13.2.4.5.4 1.2.1 1.7-.5.7-1.7.7-2.2 0-2.6-3.5-5-8.8-1.9-14.3 2.1-3.7 5.4-5.1 8.3-6.4 3.1-1.3 6-2.6 5.8-6.2 0-1.4-1-6.5-7.1-11-.6-.5-.7-1.3-.3-1.9s1.4-.7 2-.3c7.4 5.7 11.4 14.3 5 21.2-.2.1-.3.5-.1.9z" fill="#fcfdff" opacity="1" data-original="#000000"></path><path d="M22.2 15c0 3.2 2.6 5.8 5.8 5.8s5.8-2.6 5.8-5.8-2.6-5.8-5.8-5.8-5.8 2.6-5.8 5.8zm9.6 0c0 2.1-1.7 3.8-3.8 3.8s-3.8-1.7-3.8-3.8 1.7-3.8 3.8-3.8 3.8 1.7 3.8 3.8zM17.8 46.1c.2.1.4.2.6.2.3 0 .6-.1.8-.4.3-.5.2-1.1-.2-1.4-4.1-2.9-7.2-7-8.9-11.5-.2-.5-.8-.8-1.3-.6s-.8.8-.6 1.3c1.8 4.8 5.2 9.2 9.6 12.4zM55.9 17.9c.2.5.7.8 1.2.7.5-.2.8-.7.7-1.2C56.5 13 54.1 9.1 50.9 6c-.4-.4-1-.4-1.4 0s-.4 1 0 1.4c3 2.9 5.2 6.5 6.4 10.5z" fill="#fcfdff" opacity="1" data-original="#000000"></path></g></svg>