<svg xmlns="http://www.w3.org/2000/svg" version="1.1" xmlns:xlink="http://www.w3.org/1999/xlink" width="512" height="512" x="0" y="0" viewBox="0 0 512 512" style="enable-background:new 0 0 512 512" xml:space="preserve" class=""><g><path d="m206.768 111.159-51.435 35.887a94.392 94.392 0 0 0-40.381 77.412v178.149c0 52.132 42.261 94.393 94.393 94.393h93.308c52.132 0 94.393-42.261 94.393-94.393V224.6a94.397 94.397 0 0 0-40.563-77.54l-51.715-35.902" style="stroke-width:30;stroke-miterlimit:10;" fill="none" stroke="#fcfdff" stroke-width="30" stroke-miterlimit="10" data-original="#000000" opacity="1" class=""></path><path d="m217.829 177.052-27.953 19.503a34.047 34.047 0 0 0-14.555 27.903v178.149c0 18.761 15.263 34.024 34.024 34.024h93.309c18.76 0 34.023-15.263 34.023-34.024V224.6a34.03 34.03 0 0 0-14.621-27.948l-28.308-19.653M304.769 100.774 324.485 15M187.515 15l19.716 85.774M357.061 15H154.939" style="stroke-width:30;stroke-miterlimit:10;" fill="none" stroke="#fcfdff" stroke-width="30" stroke-miterlimit="10" data-original="#000000" opacity="1" class=""></path><path d="M255.769 195.047c-27.062 0-49-21.938-49-49v-45.272h98.001v45.272c-.001 27.061-21.939 49-49.001 49z" style="stroke-width:30;stroke-miterlimit:10;" fill="none" stroke="#fcfdff" stroke-width="30" stroke-miterlimit="10" data-original="#000000" opacity="1" class=""></path></g></svg>