<svg xmlns="http://www.w3.org/2000/svg" version="1.1" xmlns:xlink="http://www.w3.org/1999/xlink" width="512" height="512" x="0" y="0" viewBox="0 0 512 512" style="enable-background:new 0 0 512 512" xml:space="preserve" class=""><g><path d="M493.397 339.962a12.58 12.58 0 0 0-8.984-3.805h-36.582a168.111 168.111 0 0 0 4.227-37.442c0-39.309-13.839-77.568-38.966-107.73a7.5 7.5 0 0 0-11.525 9.6c21.285 25.55 33.67 57.482 35.3 90.63h-145.73V145.478c31.568 1.498 61.305 12.452 86.414 31.92a7.5 7.5 0 0 0 9.191-11.855c-29.743-23.061-65.396-35.25-103.105-35.25a168.104 168.104 0 0 0-39.123 4.616v-27.692a195.225 195.225 0 0 1 39.123-3.967c107.779 0 195.464 87.685 195.464 195.464 0 4.142 3.357 7.5 7.5 7.5s7.5-3.358 7.5-7.5c0-116.05-94.414-210.464-210.464-210.464a210.556 210.556 0 0 0-39.123 3.672V65c0-4.142-3.357-7.5-7.5-7.5s-7.5 3.358-7.5 7.5v200.077H30.078V15h199.436v15c0 4.142 3.357 7.5 7.5 7.5s7.5-3.358 7.5-7.5V12.5c0-6.893-5.607-12.5-12.5-12.5H27.578c-6.893 0-12.5 5.607-12.5 12.5v255.077c0 6.893 5.607 12.5 12.5 12.5h46.431a211.173 211.173 0 0 0-.837 18.638c0 116.05 94.414 210.464 210.465 210.464 4.143 0 7.5-3.358 7.5-7.5s-3.357-7.5-7.5-7.5c-107.779 0-195.465-87.685-195.465-195.464 0-6.288.319-12.501.905-18.638h27.173a168.973 168.973 0 0 0-1.036 18.638c0 92.868 75.554 168.421 168.422 168.421 12.868 0 25.394-1.478 37.441-4.227v36.582a12.58 12.58 0 0 0 3.807 8.986 12.561 12.561 0 0 0 9.084 3.516c38.118-1.199 75.078-15.527 104.07-40.345a7.499 7.499 0 0 0 .82-10.575 7.5 7.5 0 0 0-10.574-.82c-25.753 22.045-58.403 35.003-92.207 36.645V351.157H481.82c-1.48 30.833-12.054 60.091-30.659 84.769a7.5 7.5 0 1 0 11.977 9.03c20.999-27.852 32.68-61.016 33.777-95.911a12.554 12.554 0 0 0-3.518-9.083zm-217.26-41.247v153.236c-81.127-3.925-145.922-71.154-145.922-153.236 0-6.309.391-12.527 1.135-18.638h100.663c6.893 0 12.5-5.607 12.5-12.5V150.38a152.492 152.492 0 0 1 31.623-4.901v153.236zm57.441 37.442c-6.893 0-12.5 5.607-12.5 12.5v98.828a152.589 152.589 0 0 1-29.941 4.466V306.215h145.736a152.513 152.513 0 0 1-4.466 29.942z" fill="#fcfdff" opacity="1" data-original="#000000" class=""></path><path d="M199.989 76.088c-5.657-9.938-14.618-16.645-25.233-18.885-12.908-2.724-26.922 1.176-39.358 10.558.293-8.215 3.11-14.388 8.385-18.343a7.5 7.5 0 0 0-9-12c-8.482 6.362-13.37 15.926-14.258 27.777-11.481-7.497-24.034-10.45-35.688-7.991-10.615 2.24-19.576 8.947-25.233 18.885-8.102 14.235-9 33.417-2.465 52.627 5.312 15.615 14.953 29.362 27.145 38.709 10.13 7.766 21.119 11.827 31.677 11.827a39.75 39.75 0 0 0 8.215-.849 36.95 36.95 0 0 0 5.622-1.662 36.857 36.857 0 0 0 5.621 1.662c12.935 2.73 27.1-1.169 39.893-10.978 12.191-9.347 21.832-23.094 27.145-38.709 6.532-19.211 5.634-38.392-2.468-52.628zm-11.736 47.796c-8.661 25.457-31.439 43.699-49.739 39.841a22.098 22.098 0 0 1-5.351-1.877 7.502 7.502 0 0 0-6.734 0 22.103 22.103 0 0 1-5.352 1.877c-18.292 3.864-41.077-14.382-49.738-39.841-5.079-14.928-4.593-30.022 1.301-40.376 3.555-6.246 8.844-10.267 15.294-11.628a24.244 24.244 0 0 1 5.018-.512c10.31 0 21.85 6.106 31.203 16.783a7.499 7.499 0 0 0 11.284 0c10.908-12.45 24.79-18.686 36.221-16.271 6.45 1.361 11.739 5.382 15.294 11.628 5.892 10.354 6.378 25.448 1.299 40.376zM197.032 199.174h-71.993c-4.143 0-7.5 3.358-7.5 7.5s3.357 7.5 7.5 7.5h71.993c4.143 0 7.5-3.358 7.5-7.5s-3.357-7.5-7.5-7.5zM62.652 214.174h38.387c4.143 0 7.5-3.358 7.5-7.5s-3.357-7.5-7.5-7.5H62.652a7.5 7.5 0 0 0 0 15zM62.652 244.16h134.38c4.143 0 7.5-3.358 7.5-7.5s-3.357-7.5-7.5-7.5H62.652a7.5 7.5 0 0 0 0 15zM242.039 306.579h-68c-4.143 0-7.5 3.358-7.5 7.5s3.357 7.5 7.5 7.5h68c4.143 0 7.5-3.358 7.5-7.5s-3.357-7.5-7.5-7.5zM242.039 333.579h-68c-4.143 0-7.5 3.358-7.5 7.5s3.357 7.5 7.5 7.5h68c4.143 0 7.5-3.358 7.5-7.5s-3.357-7.5-7.5-7.5zM242.039 360.579h-36c-4.143 0-7.5 3.358-7.5 7.5s3.357 7.5 7.5 7.5h36c4.143 0 7.5-3.358 7.5-7.5s-3.357-7.5-7.5-7.5z" fill="#fcfdff" opacity="1" data-original="#000000" class=""></path></g></svg>