<svg xmlns="http://www.w3.org/2000/svg" version="1.1" xmlns:xlink="http://www.w3.org/1999/xlink" width="512" height="512" x="0" y="0" viewBox="0 0 64 64" style="enable-background:new 0 0 512 512" xml:space="preserve" class=""><g><path d="M55.084 2.401a1.03 1.03 0 0 0-1.414 0l-3.998 3.998a13.582 13.582 0 0 1-9.666 4.007h-.27a1.444 1.444 0 0 1-1.442-1.442V3.735a1 1 0 0 0-1-1H26.706a1 1 0 0 0-1 1v5.229c0 .795-.647 1.442-1.442 1.442h-.27a13.582 13.582 0 0 1-9.666-4.007L10.33 2.401a1.03 1.03 0 0 0-1.414 0L2.293 9.024a.999.999 0 0 0 0 1.414l9 9a18.433 18.433 0 0 1 4.962 8.999c.917 4.081 2.043 9.599 2.202 12.71.133 2.633-1.548 6.291-3.173 9.829-1.669 3.634-3.246 7.067-3.246 9.915a1 1 0 0 0 1 1h37.924a1 1 0 0 0 1-1c0-2.848-1.577-6.281-3.246-9.915-1.625-3.538-3.306-7.196-3.173-9.828.159-3.112 1.285-8.63 2.202-12.711a18.453 18.453 0 0 1 4.962-8.999l9-9a.999.999 0 0 0 0-1.414L55.084 2.4zm-3.791 15.624a20.443 20.443 0 0 0-5.499 9.974c-.934 4.157-2.082 9.795-2.249 13.049-.156 3.122 1.628 7.007 3.354 10.764 1.308 2.848 2.654 5.779 2.986 8.08h-35.77c.332-2.301 1.679-5.232 2.986-8.08 1.726-3.757 3.51-7.642 3.354-10.765-.167-3.253-1.315-8.891-2.249-13.048a20.447 20.447 0 0 0-5.499-9.974L4.414 9.731l5.209-5.209 3.291 3.291a15.565 15.565 0 0 0 11.08 4.593h.27a3.446 3.446 0 0 0 3.442-3.442V4.735h8.588v4.229a3.446 3.446 0 0 0 3.442 3.442h.27c4.184 0 8.119-1.631 11.08-4.593l3.291-3.291 5.209 5.209-8.293 8.293z" fill="#fcfdff" opacity="1" data-original="#000000"></path><path d="M39.98 18.175H38.7v-1.03a1 1 0 0 0-1-1H26.3a1 1 0 0 0-1 1v1.03h-1.28c-.965 0-1.75.785-1.75 1.75v2.19c0 .965.785 1.75 1.75 1.75h1.28v2.06h-1.28c-.965 0-1.75.785-1.75 1.75v2.19c0 .965.785 1.75 1.75 1.75h1.28v2.06h-1.28c-.965 0-1.75.785-1.75 1.75v2.19c0 .965.785 1.75 1.75 1.75h1.28v2.06h-1.28c-.965 0-1.75.785-1.75 1.75v2.19c0 .965.785 1.75 1.75 1.75h1.28v2.06h-1.28c-.965 0-1.75.785-1.75 1.75v2.19c0 .965.785 1.75 1.75 1.75h1.28v1.029a1 1 0 0 0 1 1h11.4a1 1 0 0 0 1-1v-1.029h1.28c.965 0 1.75-.785 1.75-1.75v-2.19c0-.965-.785-1.75-1.75-1.75H38.7v-2.06h1.28c.965 0 1.75-.785 1.75-1.75v-2.19c0-.965-.785-1.75-1.75-1.75H38.7v-2.06h1.28c.965 0 1.75-.785 1.75-1.75v-2.19c0-.965-.785-1.75-1.75-1.75H38.7v-2.06h1.28c.965 0 1.75-.785 1.75-1.75v-2.19c0-.965-.785-1.75-1.75-1.75H38.7v-2.06h1.28c.965 0 1.75-.785 1.75-1.75v-2.19c0-.965-.785-1.75-1.75-1.75zm-3.28 24.25v4.72h-9.4v-5.75h9.4zm-9.4-4.06v-4.72h9.4v5.749h-9.4zm9.4-11.44v4.72h-9.4v-5.75h9.4zm-9.4-8.78h9.4v5.75h-9.4zm-3.03 3.72v-1.69h1.03v1.69zm0 7.75v-1.69h1.03v1.69zm0 7.75v-1.69h1.03v1.69zm0 7.75v-1.69h1.03v1.69zm0 7.75v-1.69h1.03v1.69zm12.431 2.029h-9.4v-5.75h9.4zm3.03-3.72v1.69h-1.03v-1.69zm0-7.75v1.69h-1.03v-1.69zm0-7.75v1.69h-1.03v-1.69zm0-7.75v1.69h-1.03v-1.69zm0-6.06h-1.03v-1.69h1.03z" fill="#fcfdff" opacity="1" data-original="#000000"></path></g></svg>