<svg xmlns="http://www.w3.org/2000/svg" version="1.1" xmlns:xlink="http://www.w3.org/1999/xlink" width="512" height="512" x="0" y="0" viewBox="0 0 60 60" style="enable-background:new 0 0 512 512" xml:space="preserve" class=""><g><path d="m46.56 12.71-1.36-.22c.04-.26.09-.52.14-.77.14-.8-.06-1.61-.56-2.23-.47-.58-1.15-.93-1.89-.95-4.38-.14-8.28-.91-11.93-2.36-.66-.27-1.39-.22-2.04.14-.76.42-1.32 1.23-1.48 2.15-.07.36-.13.72-.19 1.08l-1.37-.22c-.45-.08-.93.04-1.32.32-.45.32-.75.84-.84 1.42-.1.63-.19 1.26-.28 1.89-.08.58.06 1.17.4 1.61.29.38.71.63 1.17.69l1.38.18c-.03.27-.06.54-.1.8-.09.76.09 1.47.45 2.04-.47.5-.78 1.17-.84 1.9-.03.36-.06.73-.08 1.09l-1.38-.09c-.46-.03-.92.13-1.28.45-.41.36-.67.91-.7 1.5-.04.64-.07 1.27-.09 1.91-.02.59.18 1.15.55 1.56.33.35.77.56 1.23.57l1.39.05c-.01.27-.01.54-.02.81-.01.76.23 1.46.64 1.99-.42.54-.66 1.24-.65 1.97 0 .36.01.73.02 1.09l-1.39.04c-.46.01-.9.22-1.23.57-.38.4-.58.97-.56 1.56.02.64.05 1.27.09 1.91.03.59.29 1.13.7 1.5.36.32.83.48 1.28.45l1.35-.11.06.8c.06.76.37 1.43.83 1.92-.37.58-.54 1.3-.46 2.03.04.36.08.73.13 1.09l-1.38.18c-.46.06-.88.3-1.17.68-.34.44-.48 1.02-.41 1.61l.27 1.89c.09.58.4 1.1.84 1.43.39.28.86.4 1.31.33l1.37-.22c.04.27.09.53.14.8.25 1.43 1.36 2.47 2.63 2.48h.26c4.41 0 8.8-.86 13.4-2.63 1.17-.45 1.85-1.71 1.63-3l-.09-.54 1.36-.22c1-.16 1.69-1.12 1.54-2.13-.08-.51-.15-1.01-.22-1.52a1.864 1.864 0 0 0-2.08-1.61l-1.37.18-.09-.78c-.07-.62-.34-1.18-.76-1.62.32-.5.49-1.1.44-1.74-.01-.18-.03-.36-.04-.54l1.38-.09c1.02-.06 1.79-.95 1.74-1.97-.03-.51-.05-1.02-.07-1.53a1.87 1.87 0 0 0-1.86-1.8h-.05l-1.38.04c-.01-.26-.01-.52-.01-.78-.01-.62-.22-1.21-.6-1.68.37-.46.59-1.05.61-1.68 0-.18.01-.36.01-.54l1.38.05c1.06.02 1.88-.77 1.92-1.8.02-.51.05-1.02.08-1.53.06-1.02-.72-1.91-1.73-1.98l-1.38-.09.06-.78c.05-.62-.11-1.23-.43-1.73.41-.42.69-.99.77-1.62l.06-.54 1.37.18a1.87 1.87 0 0 0 2.08-1.6c.07-.51.15-1.01.22-1.52.17-1.04-.51-2-1.52-2.17zm-2.92 31.93 2.23-.28c.06.44.12.87.19 1.31l-2.22.36c-.26.04-.5.19-.65.4s-.22.48-.18.75c.08.52.17 1.03.26 1.55.06.34-.1.68-.38.79-4.46 1.71-8.7 2.52-12.93 2.49-.26 0-.59-.33-.67-.82l-.3-1.76a.997.997 0 0 0-.99-.84c-.05 0-.11 0-.16.01l-2.2.35c0-.02-.01-.03-.01-.05l-.27-1.86v-.05l2.21-.28c.26-.03.5-.17.66-.38s.23-.48.2-.74c-.09-.68-.17-1.36-.24-2.05-.04-.4.1-.71.25-.86.07-.07.14-.11.19-.12 1.03.09 2.06.15 3.1.15 3.19 0 6.45-.46 9.86-1.36.16-.02.3.03.39.09.18.12.29.32.32.55l.21 1.81c.03.26.17.5.38.66s.49.22.75.18zm1.35-10.18.06 1.32-2.24.14c-.26.02-.51.14-.69.34-.17.2-.26.46-.25.72.03.52.07 1.04.11 1.56.03.35-.17.67-.45.75-.11.03-.21.05-.31.08-.06.01-.12.01-.18.03-4.24 1.11-8.2 1.49-12.11 1.15-.07-.01-.14 0-.21 0-.1-.01-.2-.01-.3-.02-.25-.03-.55-.38-.59-.88-.05-.59-.09-1.18-.13-1.77a1.004 1.004 0 0 0-1-.94h-.06l-2.23.14c0-.01-.01-.03-.01-.05l-.09-1.88v-.05l2.23-.07c.27-.01.52-.12.7-.31s.28-.45.27-.72c-.02-.69-.04-1.37-.05-2.06-.01-.4.17-.69.33-.83.08-.07.15-.09.2-.1 2.11.4 4.25.61 6.46.61 2.13 0 4.32-.19 6.59-.57.16 0 .28.06.36.12.16.14.26.35.26.57.01.6.02 1.21.04 1.81.02.55.52.99 1.03.97zm.08-9.92c-.03.44-.05.88-.07 1.32l-2.24-.08a1.01 1.01 0 0 0-1.03.97c-.02.52-.03 1.05-.04 1.57-.01.35-.23.65-.52.7-.11.02-.22.03-.32.05-.06 0-.12 0-.18.01-4.33.7-8.31.69-12.16-.03-.07-.01-.14-.01-.21-.02-.1-.02-.2-.03-.3-.05-.25-.05-.51-.44-.5-.93.01-.59.03-1.19.05-1.78a.997.997 0 0 0-.97-1.03l-2.23-.07v-.05l.09-1.88c0-.02 0-.04.01-.05l2.23.15c.54.03 1.03-.38 1.06-.93.04-.68.1-1.37.15-2.05.03-.4.23-.68.41-.79.1-.07.18-.08.24-.08 3.19.93 6.5 1.4 10.06 1.4.95 0 1.92-.04 2.9-.1.15.02.27.08.34.16.15.15.22.37.21.6-.05.6-.09 1.21-.13 1.81a.99.99 0 0 0 .93 1.06zm.84-8.57-2.23-.29a.988.988 0 0 0-1.12.86c-.07.52-.13 1.04-.19 1.56-.04.34-.29.62-.58.65-.11.01-.21.01-.32.02-.06 0-.12-.01-.19-.01-4.38.28-8.33-.11-12.11-1.2-.07-.02-.14-.02-.2-.04-.1-.03-.2-.05-.29-.08-.25-.07-.47-.48-.41-.97.07-.59.14-1.18.22-1.77a.995.995 0 0 0-.86-1.12l-2.21-.29v-.06l.27-1.86c0-.02.01-.04.01-.05l2.2.36c.54.09 1.06-.28 1.15-.82.11-.68.23-1.36.35-2.04.07-.4.3-.66.48-.76s.29-.05.33-.04c3.87 1.54 8 2.35 12.61 2.5.2.01.33.12.4.21.13.17.19.4.15.62-.11.6-.21 1.2-.31 1.79-.04.26.02.53.17.75.16.22.39.36.65.4l2.21.36c-.06.45-.12.89-.18 1.32zM17.88 30.29c0-.55-.45-1-1-1h-4c-.55 0-1 .45-1 1s.45 1 1 1h4c.56 0 1-.44 1-1zM15.1 22.52a.996.996 0 0 0 0 1.41l2.83 2.83c.2.2.45.29.71.29s.51-.1.71-.29a.996.996 0 0 0 0-1.41l-2.83-2.83c-.39-.39-1.03-.39-1.42 0zM19.35 35.24a.996.996 0 1 0-1.41-1.41l-2.83 2.83a.996.996 0 0 0 .71 1.7c.26 0 .51-.1.71-.29z" fill="#fcfdff" opacity="1" data-original="#000000" class=""></path></g></svg>