<svg xmlns="http://www.w3.org/2000/svg" version="1.1" xmlns:xlink="http://www.w3.org/1999/xlink" width="512" height="512" x="0" y="0" viewBox="0 0 500 500" style="enable-background:new 0 0 512 512" xml:space="preserve" class=""><g><path d="M211.96 464.56a10.1 10.1 0 0 1-9.12-5.78c-1.81-3.83-3.74-8.19-5.79-12.81-11.24-25.33-26.64-60.02-54.82-88.2s-62.87-43.58-88.2-54.82c-4.61-2.05-8.97-3.98-12.8-5.79-3.87-1.82-6.17-5.89-5.73-10.15s3.51-7.78 7.67-8.78c42.42-10.25 104.32-37.76 150.81-84.26 46.5-46.5 74.02-108.39 84.26-150.81 1-4.16 4.52-7.23 8.78-7.67 4.25-.42 8.32 1.86 10.15 5.73 1.81 3.83 3.74 8.19 5.79 12.81 11.24 25.33 26.64 60.02 54.82 88.2s62.87 43.58 88.19 54.82c4.62 2.05 8.98 3.98 12.81 5.79 3.87 1.82 6.17 5.89 5.73 10.15s-3.51 7.77-7.67 8.78c-42.42 10.25-104.31 37.76-150.81 84.26-46.5 46.5-74.02 108.39-84.26 150.81-1 4.16-4.52 7.23-8.78 7.67-.35.03-.69.05-1.03.05zM74.47 290.01c24.37 11.15 55.85 27.32 82.03 53.5s42.35 57.66 53.5 82.03c11.5-33.66 35.57-87.57 81.77-133.77S391.88 221.5 425.54 210c-24.37-11.15-55.85-27.32-82.03-53.5s-42.35-57.66-53.5-82.03c-11.5 33.66-35.57 87.57-81.77 133.77s-100.11 70.27-133.77 81.77zm224.43 8.89h.01zM43.21 461.83c-2.58 0-5.16-.99-7.13-2.95-3.94-3.94-3.94-10.33 0-14.27l60.52-60.52c3.94-3.94 10.33-3.94 14.27 0s3.94 10.33 0 14.27l-60.52 60.52a10.07 10.07 0 0 1-7.14 2.95z" fill="#fcfdff" opacity="1" data-original="#000000" class=""></path><path d="M93.65 461.83H43.21c-5.57 0-10.09-4.52-10.09-10.09V401.3c0-5.57 4.52-10.09 10.09-10.09s10.09 4.52 10.09 10.09v40.35h40.35c5.57 0 10.09 4.52 10.09 10.09s-4.52 10.09-10.09 10.09zM396.26 118.87c-2.58 0-5.16-.99-7.13-2.95-3.94-3.94-3.94-10.33 0-14.27l60.52-60.52c3.94-3.94 10.33-3.94 14.27 0s3.94 10.33 0 14.27l-60.52 60.52a10.094 10.094 0 0 1-7.14 2.95z" fill="#fcfdff" opacity="1" data-original="#000000" class=""></path><path d="M456.79 108.78c-5.57 0-10.09-4.52-10.09-10.09V58.34h-40.35c-5.57 0-10.09-4.52-10.09-10.09s4.52-10.09 10.09-10.09h50.44c5.57 0 10.09 4.52 10.09 10.09v50.44c-.01 5.57-4.52 10.09-10.09 10.09z" fill="#fcfdff" opacity="1" data-original="#000000" class=""></path></g></svg>